<svg width="22" height="20" viewBox="0 0 22 20" fill="none" xmlns="http://www.w3.org/2000/svg">
<path d="M18.9075 3.54059C18.4645 3.09738 17.9385 2.74579 17.3596 2.50592C16.7807 2.26604 16.1602 2.14258 15.5336 2.14258C14.9069 2.14258 14.2864 2.26604 13.7075 2.50592C13.1286 2.74579 12.6026 3.09738 12.1596 3.54059L11.2402 4.45998L10.3208 3.54059C9.42597 2.64576 8.21231 2.14304 6.94682 2.14304C5.68133 2.14304 4.46768 2.64576 3.57284 3.54059C2.67801 4.43543 2.17529 5.64908 2.17529 6.91457C2.17529 8.18006 2.67801 9.39371 3.57284 10.2885L11.2402 17.9559L18.9075 10.2885C19.3507 9.84555 19.7023 9.31956 19.9422 8.74064C20.1821 8.16172 20.3055 7.54122 20.3055 6.91457C20.3055 6.28792 20.1821 5.66741 19.9422 5.0885C19.7023 4.50958 19.3507 3.98359 18.9075 3.54059Z" stroke="#235984" stroke-width="2.60204" stroke-linecap="round" stroke-linejoin="round"/>
</svg>
